<svg width="345" height="376" viewBox="0 0 345 376" fill="none" xmlns="http://www.w3.org/2000/svg">
<path fill-rule="evenodd" clip-rule="evenodd" d="M289.29 285.81C302.39 271.486 314.721 256.477 326.232 240.847L326.709 241.211C325.986 242.186 325.261 243.159 324.536 244.132L324.515 244.16C322.861 246.38 321.207 248.6 319.575 250.839C312.571 260.469 304.843 269.51 297.116 278.55L296.273 279.536C290.335 286.423 283.589 292.571 276.181 297.845C269.245 302.838 262.935 308.574 256.623 314.31C254.922 315.856 253.221 317.402 251.507 318.934C236.007 332.791 219.875 345.854 202.289 357.015C201.897 357.264 201.503 357.537 201.107 357.811L201.107 357.811C200.105 358.506 199.093 359.207 198.088 359.531C196.673 359.988 195.336 360.622 193.997 361.257C192.044 362.182 190.09 363.108 187.893 363.487C186.995 363.642 186.158 364.045 185.304 364.456L185.304 364.456C184.284 364.947 183.24 365.449 182.036 365.557C177.434 365.974 173.136 367.503 168.832 369.034L168.83 369.034C167.522 369.499 166.214 369.965 164.897 370.399C156.175 373.275 147.283 376.193 138.022 375.644C121.392 374.657 104.914 372.196 89.5568 365.323C73.6643 358.211 60.784 347.503 51.5304 332.438C50.8707 331.365 50.1999 330.3 49.53 329.236L49.5298 329.236C46.1529 323.876 42.8014 318.556 41.0339 312.359C40.0137 308.499 39.2517 304.574 38.7531 300.612C38.5308 299.087 38.239 297.576 37.9472 296.065L37.9472 296.064C37.3336 292.887 36.7199 289.708 36.7504 286.395C36.8118 279.632 36.9288 272.908 37.6369 266.16C38.3829 259.076 35.0128 253.291 30.8669 247.794C29.0601 245.399 27.1612 243.075 25.2622 240.751L25.2621 240.751C21.7776 236.486 18.2928 232.221 15.3761 227.512C2.77548 207.165 -1.78009 185.245 1.26015 161.454C2.36388 152.813 4.08349 144.314 5.80297 135.815C6.47348 132.501 7.14398 129.187 7.77793 125.865C8.7925 120.548 10.0076 115.266 11.2223 109.985C12.5474 104.224 13.8721 98.466 14.9353 92.6672C19.544 67.5569 35.0622 50.0787 53.9751 34.8497C62.3713 28.0897 71.9095 23.1078 81.6049 18.4096C83.2444 17.615 84.8785 16.8099 86.5121 16.005C95.43 11.611 104.334 7.22405 114.022 4.60288C134.639 -0.972047 155.12 -1.5012 175.527 5.61095C185.354 9.03507 195.179 12.4729 204.121 17.8787C212.945 23.0786 220.774 29.808 227.239 37.7521C231.273 42.7902 234.939 48.0902 238.604 53.3893C242.061 58.3872 245.517 63.3841 249.281 68.1598C250.775 70.0319 252.43 71.7687 254.229 73.35C255.98 74.9103 257.651 76.5613 259.321 78.2119L259.321 78.2121L259.322 78.2123L259.322 78.2125L259.322 78.2127L259.322 78.213L259.322 78.2132L259.323 78.2134L259.323 78.2136L259.323 78.2138L259.323 78.214L259.324 78.2142L259.324 78.2145L259.324 78.2147L259.324 78.2149L259.325 78.2151L259.325 78.2153L259.325 78.2155L259.325 78.2157L259.326 78.216L259.326 78.2162L259.326 78.2164L259.326 78.2166L259.327 78.2168L259.327 78.217L259.327 78.2172L259.328 78.2178C262.16 81.0169 264.992 83.8149 268.211 86.1689C271.241 88.384 274.332 90.5159 277.423 92.6479C280.651 94.8742 283.879 97.1006 287.037 99.4214C296.435 106.42 305.072 114.387 312.804 123.192C320.129 131.441 326.752 140.289 332.603 149.642C336.143 155.194 338.993 161.158 341.087 167.402C341.327 168.134 341.647 168.867 341.97 169.608C342.946 171.841 343.955 174.152 342.908 176.77C345.682 185.849 343.774 194.609 341.867 203.366L341.867 203.368C341.452 205.27 341.038 207.172 340.672 209.077C340.081 212.153 339.066 215.104 338.052 218.052C337.524 219.589 336.995 221.126 336.527 222.68C335.772 225.184 334.377 227.203 332.989 229.212C332.332 230.163 331.676 231.112 331.091 232.109C326.82 239.395 321.65 246.076 316.484 252.752C315.642 253.84 314.8 254.928 313.962 256.019C306.114 266.238 297.727 276.022 289.29 285.81ZM129.921 300.455L129.921 300.454C131.443 291.514 132.981 282.484 132.92 272.818C129.352 284.325 126.958 303.721 128.718 307.718C129.095 305.301 129.506 302.889 129.918 300.47L129.919 300.468L129.919 300.464L129.919 300.463L129.92 300.462L129.92 300.461L129.92 300.46L129.92 300.459L129.92 300.458L129.92 300.457L129.92 300.456L129.921 300.455ZM122.616 252.193L123.893 252.271C123.782 254.378 123.702 256.487 123.621 258.596C123.34 265.954 123.059 273.315 121.473 280.585C120.935 271.104 121.77 261.71 122.606 252.315L122.616 252.193ZM49.8646 198.156C49.2444 193.885 49.0098 189.577 48.7753 185.273C48.4791 179.836 48.1832 174.404 47.1109 169.056C46.2916 178.843 47.2241 188.698 49.8646 198.156ZM63.057 271.997C65.8212 275.369 68.0358 288.618 66.3544 291.875C65.9967 289.571 65.516 287.285 65.031 284.979C64.1519 280.798 63.2585 276.55 63.057 271.997ZM141.662 165.624C139.057 170.723 136.401 185.842 137.364 190.15L141.662 165.624ZM130.141 10.5669C136.716 10.8657 143.305 10.3659 149.761 9.07822C143.184 8.49591 136.556 8.99884 130.141 10.5669ZM33.3899 152.407C33.3165 153.348 33.2324 154.29 33.1482 155.231L33.1482 155.231L33.1482 155.231C32.6146 161.203 32.0809 167.175 34.2807 173.041C34.0417 168.889 33.8831 164.734 33.7245 160.578L33.7244 160.577L33.7244 160.577L33.7244 160.577L33.7244 160.577L33.7244 160.577L33.7244 160.577L33.7244 160.576L33.7244 160.576L33.7244 160.576L33.7244 160.576L33.7244 160.576L33.7244 160.576L33.7244 160.576L33.7244 160.576L33.7244 160.576L33.7244 160.576L33.7244 160.575L33.7243 160.575L33.7243 160.575L33.7243 160.575C33.6204 157.853 33.5165 155.13 33.3899 152.407ZM116.947 272.008L116.946 272.013C116.841 273.197 116.736 274.381 116.639 275.565C115.966 268.394 116.646 261.262 117.49 254.137C118.002 260.114 117.474 266.061 116.947 272.008L116.947 272.008ZM19.4486 87.9321C20.5916 84.067 21.9994 80.2851 23.662 76.6132C24.8113 74.1127 26.0857 71.6697 27.36 69.2268L27.3601 69.2267L27.3604 69.226C27.9167 68.1597 28.4729 67.0933 29.0188 66.0222C23.6688 72.6848 19.388 82.5622 19.4486 87.9321ZM47.7999 136.842C46.6377 133.883 48.7015 120.695 51.2441 114.804C51.0283 116.315 50.7682 117.824 50.5074 119.337C50.1397 121.47 49.7708 123.611 49.523 125.773C49.2395 128.264 48.8203 130.741 48.3837 133.321L48.3835 133.322C48.1889 134.472 47.9909 135.641 47.7999 136.842ZM142.476 289.182L143.132 289.304C144.831 285.551 145.145 281.543 145.458 277.535L145.458 277.535L145.458 277.533C145.512 276.845 145.566 276.158 145.626 275.471L144.996 275.356L142.476 289.182ZM152.971 148.429L156.17 131.39C156.08 137.197 155.21 142.966 153.585 148.543C153.38 148.504 153.176 148.467 152.971 148.429ZM163.297 147.897C164.975 145.516 166.673 135.009 166.15 132.054L163.297 147.897ZM111.56 256.671L112.327 256.729L111.674 270.438C110.928 265.831 111.207 261.254 111.56 256.671ZM69.0106 254.825L69.0112 254.828L69.0093 254.824L69.0106 254.825ZM71.8383 267.345C71.9581 263.001 70.986 258.697 69.0112 254.828L71.8383 267.345ZM54.2944 304.644L59.5505 316.629L59.5492 316.628C56.9132 313.083 55.1165 308.985 54.2944 304.644ZM120.539 86.3752L119.831 86.1224L116.268 96.2076L116.871 96.422C117.264 94.9315 117.912 93.5324 118.56 92.1331C119.417 90.2844 120.273 88.4356 120.54 86.3758L120.539 86.3752ZM176.601 148.477L176.601 148.479L176.601 148.479L176.601 148.477ZM178.648 139.569C178.724 142.663 178.02 145.726 176.601 148.477C176.648 148.03 176.688 147.58 176.729 147.13L176.729 147.129C176.961 144.535 177.196 141.914 178.648 139.569ZM44.7861 294.551C44.3156 296.996 44.5381 299.523 45.4286 301.848C45.4509 301.914 45.4692 301.984 45.4877 302.055L45.4877 302.055C45.5723 302.381 45.6593 302.715 46.1336 302.648C46.7113 302.567 46.674 302.084 46.5766 301.699C46.1269 299.842 45.6576 297.99 45.1885 296.139L45.1885 296.139C45.0544 295.61 44.9204 295.081 44.7868 294.552L44.7861 294.551ZM22.0466 173.487L22.0466 173.488L22.0473 173.489L22.0466 173.487ZM22.0466 173.487C22.0406 173.169 22.0359 172.852 22.0312 172.535C21.9902 169.78 21.9496 167.046 21.0982 164.414C20.2934 167.569 21.1255 170.549 22.0466 173.487ZM59.4884 299.935C59.6273 303.368 61.2415 307.517 62.7769 308.955L59.4884 299.935ZM325.176 212.507L325.179 212.501L325.177 212.504L325.176 212.507ZM325.176 212.507L320.707 220.981C322.924 218.604 324.466 215.679 325.176 212.507ZM128.776 285.469C129.669 282.604 130.117 279.619 130.106 276.619C129.254 279.493 128.806 282.472 128.776 285.469ZM199.803 24.4693C199.442 24.019 199.085 23.5747 198.637 23.2579L198.648 23.2613C200.323 23.7878 202.003 24.3159 202.917 26.2661C201.304 26.3407 200.543 25.3925 199.803 24.4693ZM126.24 143.692C127.227 141.373 127.78 138.892 127.87 136.373C126.895 138.697 126.343 141.175 126.24 143.692ZM289.887 282.27L289.795 282.187L294.825 276.6L294.917 276.683L289.887 282.27Z" fill="#9EAD8D"/>
</svg>
