<svg width="499" height="547" viewBox="0 0 499 547" fill="none" xmlns="http://www.w3.org/2000/svg">
<path fill-rule="evenodd" clip-rule="evenodd" d="M132.648 61.8424C107.048 75.7745 82.2048 91.053 58.2224 107.614L57.7224 106.864C59.2189 105.838 60.7175 104.816 62.2161 103.794L62.2771 103.752L62.2882 103.744C65.7187 101.404 69.1496 99.0636 72.5577 96.6849C87.2081 86.4394 102.598 77.3836 117.987 68.3284L117.988 68.3279L119.669 67.3387C131.465 60.4633 144.047 55.0326 157.14 51.1641C169.426 47.4631 181.187 42.4044 192.951 37.3449L192.951 37.3448L192.952 37.3444L192.956 37.3427L192.96 37.341L192.964 37.3392L192.968 37.3375L192.972 37.3358L192.976 37.334L192.98 37.3323L192.984 37.3306L192.988 37.3288L192.993 37.3271L192.997 37.3254L193.001 37.3237L193.005 37.3219L193.009 37.3202L193.013 37.3185L193.016 37.3169C196.166 35.9624 199.315 34.6078 202.474 33.2797C231.252 21.1813 260.537 10.5186 290.955 3.26233C291.633 3.10068 292.326 2.90542 293.022 2.70946C294.785 2.21323 296.563 1.71254 298.148 1.74227C300.379 1.78422 302.588 1.53732 304.798 1.29026C308.022 0.929872 311.249 0.569161 314.552 1.10396C315.903 1.32205 317.287 1.15894 318.7 0.992425L318.701 0.992349C320.388 0.793612 322.116 0.590053 323.877 1.02419C330.611 2.67799 337.459 2.6059 344.317 2.53371L344.317 2.53366C346.401 2.51175 348.486 2.48986 350.569 2.51634C364.353 2.69153 378.4 2.88844 391.274 8.18642C414.391 17.6998 436.572 29.2302 455.003 46.4742C474.076 64.3188 487.116 85.7952 492.877 111.684C493.287 113.528 493.718 115.366 494.148 117.2L494.148 117.201L494.149 117.203C496.318 126.456 498.471 135.64 497.948 145.294C497.507 151.269 496.668 157.208 495.437 163.073C495.006 165.345 494.68 167.632 494.355 169.918L494.355 169.919C493.671 174.727 492.986 179.536 491.322 184.221C487.926 193.787 484.47 203.27 480.163 212.498C475.638 222.186 477.59 232.038 480.784 241.859C482.176 246.139 483.734 250.362 485.291 254.586L485.292 254.587C488.15 262.337 491.009 270.088 492.843 278.193C500.77 313.209 496.509 346.532 480.553 378.804C474.759 390.524 468.16 401.744 461.561 412.964C458.988 417.339 456.415 421.714 453.89 426.118C449.848 433.166 445.539 440.068 441.232 446.967L441.232 446.967L441.232 446.968L441.232 446.968C436.532 454.494 431.835 462.018 427.489 469.727C408.662 503.105 378.087 520.332 343.796 532.712C328.573 538.207 312.599 540.622 296.541 542.557C293.826 542.885 291.113 543.23 288.4 543.575C273.595 545.458 258.813 547.339 243.781 546.331C211.795 544.182 182.471 534.941 156.99 514.894C144.719 505.241 132.459 495.57 122.414 483.538C112.435 471.855 104.619 458.488 99.3306 444.062C96.0705 434.946 93.4617 425.638 90.8533 416.331L90.8532 416.331L90.8531 416.331L90.853 416.33L90.8529 416.33L90.8528 416.33L90.8527 416.329L90.8526 416.329L90.8525 416.328L90.8524 416.328L90.8523 416.328L90.8522 416.327L90.8521 416.327L90.852 416.327L90.8519 416.326L90.8518 416.326L90.8517 416.326L90.8516 416.325L90.8515 416.325L90.8514 416.324L90.8514 416.324L90.8513 416.324L90.8512 416.323L90.8511 416.323L90.851 416.323L90.8509 416.322C88.3916 407.548 85.9328 398.775 82.9284 390.166C81.7249 386.781 80.2251 383.509 78.4463 380.388C76.7229 377.317 75.1579 374.156 73.5932 370.995C70.9426 365.642 68.293 360.29 64.8759 355.379C61.6635 350.763 58.3238 346.235 54.9842 341.707L54.9837 341.707L54.9833 341.706L54.9829 341.705L54.9824 341.705L54.982 341.704L54.9815 341.704L54.9811 341.703L54.9807 341.702L54.9802 341.702L54.9798 341.701L54.9794 341.701L54.9789 341.7L54.9785 341.7L54.9781 341.699L54.9776 341.698L54.9772 341.698L54.9768 341.697L54.9763 341.697L54.9759 341.696L54.9755 341.695L54.975 341.695L54.9746 341.694L54.9741 341.694L54.9737 341.693L54.9733 341.692C51.4819 336.959 47.9907 332.225 44.6447 327.392C34.7314 312.877 26.3734 297.359 19.7085 281.094C13.3496 265.817 8.28038 250.033 4.55393 233.907C2.24549 224.303 1.12014 214.451 1.2029 204.571C1.22103 203.418 1.12576 202.226 1.02937 201.02L1.02926 201.019L1.0292 201.018L1.02918 201.018L1.02916 201.017L1.02914 201.017L1.02913 201.017L1.02911 201.016L1.02909 201.016L1.02908 201.015L1.02906 201.015L1.02904 201.015L1.02902 201.014L1.02901 201.014L1.02899 201.013L1.02897 201.013L1.02895 201.012L1.02894 201.012L1.02892 201.012L1.0289 201.011L1.02888 201.011L1.02887 201.01C0.737765 197.366 0.436587 193.595 3.2028 190.39C3.70872 176.157 10.7029 164.658 17.6937 153.164C19.213 150.667 20.732 148.169 22.1843 145.644C24.5281 141.569 27.412 137.877 30.293 134.189L30.2936 134.189L30.2943 134.188L30.2949 134.187L30.2955 134.186L30.2961 134.185L30.2968 134.185L30.2974 134.184L30.298 134.183L30.2986 134.182L30.2993 134.182L30.2999 134.181C31.8004 132.26 33.3001 130.34 34.7219 128.367C37.0187 125.182 39.9859 122.999 42.939 120.825C44.3371 119.796 45.732 118.77 47.0512 117.641C56.6764 109.388 67.282 102.431 77.8789 95.4798C79.6069 94.3463 81.3345 93.213 83.0577 92.0742C99.1964 81.4038 115.886 71.6142 132.648 61.8424ZM365.981 118.817L365.98 118.819C359.445 130.761 352.844 142.822 348.202 156.566C358.895 141.98 371.783 115.629 371.241 109.099C369.52 112.35 367.753 115.578 365.982 118.815L365.981 118.817ZM352.732 190.855L350.957 190.122C352.146 187.187 353.292 184.234 354.439 181.281C358.437 170.978 362.438 160.672 368.247 151.13C364.37 164.845 358.589 177.765 352.807 190.687L352.732 190.855ZM429.536 303.017C428.326 309.38 426.551 315.606 424.778 321.827C422.538 329.685 420.3 337.537 419.205 345.648C425.156 332.161 428.655 317.725 429.536 303.017ZM446.945 191.814C444.672 185.683 448.012 165.804 451.992 162.003C451.372 165.447 450.935 168.925 450.495 172.433C449.697 178.793 448.887 185.256 446.945 191.814ZM283.344 304.389C289.536 298.425 300.703 278.269 301.446 271.687L283.344 304.389ZM223.825 530.005C214.639 526.373 205.045 523.868 195.252 522.545C204.301 526.58 213.954 529.1 223.825 530.005ZM430.53 375.964C431.095 374.665 431.675 373.37 432.255 372.075C435.934 363.862 439.614 355.649 439.363 346.253C437.671 352.259 435.863 358.229 434.055 364.201L434.055 364.201L434.055 364.202L434.055 364.202L434.055 364.202L434.055 364.203L434.055 364.203L434.055 364.204L434.054 364.204L434.054 364.205L434.054 364.205L434.054 364.205L434.054 364.206L434.054 364.206L434.054 364.207L434.054 364.207L434.053 364.208L434.053 364.208L434.053 364.209L434.053 364.209L434.052 364.214C432.867 368.127 431.682 372.04 430.53 375.964ZM370.473 165.508C371.203 163.877 371.932 162.246 372.65 160.611C370.096 171.113 365.642 180.9 360.957 190.598C363.155 181.868 366.814 173.688 370.473 165.508ZM418.767 474.243C415.254 479.169 411.405 483.848 407.249 488.247C404.395 491.234 401.391 494.078 398.387 496.922L398.387 496.923C397.075 498.164 395.764 499.406 394.465 500.66C405.317 493.817 416.225 481.891 418.767 474.243ZM402.464 391.017C402.666 395.783 393.284 413.488 386.793 420.605C387.839 418.567 388.946 416.552 390.057 414.533C391.622 411.686 393.193 408.829 394.603 405.881C396.224 402.485 398.031 399.175 399.913 395.728C400.752 394.192 401.606 392.628 402.464 391.017ZM342.647 128.686L341.775 128.194C337.528 132.688 335.122 138.222 332.716 143.756C332.303 144.707 331.89 145.657 331.467 146.602L332.306 147.074L342.647 128.686ZM258.882 323.267L246.005 345.882C248.974 337.687 253.031 329.925 258.066 322.806L258.32 322.95L258.52 323.063C258.641 323.131 258.761 323.199 258.882 323.267ZM243.968 318.984C240.421 321.543 232.87 335.622 232.167 340.07L243.968 318.984ZM370.612 189.896L369.553 189.44L377.187 170.307C375.991 177.208 373.357 183.566 370.612 189.896ZM430.093 213.274L430.094 213.27L430.095 213.276L430.093 213.274ZM432.206 194.131C429.911 200.236 429.184 206.817 430.094 213.27L432.206 194.131ZM475.354 149.77L473.759 130.201L473.761 130.204C475.767 136.52 476.312 143.21 475.354 149.77ZM274.544 427.132L275.425 427.836L285.416 415.266L284.665 414.667C283.379 416.59 281.774 418.259 280.17 419.928C278.05 422.133 275.93 424.339 274.543 427.131L274.544 427.132ZM225.37 311.671L225.373 311.668L225.372 311.667L225.37 311.671ZM218.107 323.31C219.513 318.884 222.011 314.881 225.37 311.671C225.085 312.282 224.808 312.901 224.531 313.52C222.932 317.087 221.316 320.691 218.107 323.31ZM483.909 168.729C485.773 165.49 486.694 161.795 486.568 158.063C486.568 157.959 486.577 157.849 486.585 157.74C486.625 157.237 486.665 156.72 485.959 156.584C485.099 156.417 484.916 157.12 484.866 157.714C484.595 160.568 484.355 163.423 484.115 166.278L484.115 166.279L484.115 166.283C484.046 167.098 483.978 167.913 483.909 168.728L483.909 168.729ZM456.942 351.59L456.943 351.588L456.942 351.586L456.942 351.59ZM456.942 351.59C456.795 352.043 456.647 352.496 456.498 352.948C455.209 356.876 453.928 360.776 453.849 364.925C456.535 360.842 456.812 356.207 456.942 351.59ZM465.679 153.918C467.162 148.979 466.901 142.304 465.426 139.515L465.679 153.918ZM45.853 148.337L45.8456 148.344L45.8503 148.342L45.853 148.337ZM45.853 148.337L56.3414 138.495C52.0328 140.787 48.4123 144.184 45.853 148.337ZM360.272 140.638C357.603 144.267 355.506 148.283 354.055 152.546C356.67 148.884 358.763 144.876 360.272 140.638ZM131.767 476.294C132.059 477.109 132.348 477.913 132.829 478.581L132.815 478.571C130.695 477.007 128.57 475.438 128.227 472.225C130.553 472.906 131.168 474.623 131.767 476.294ZM294.499 343.03C291.963 345.838 289.965 349.089 288.605 352.618C291.124 349.797 293.121 346.55 294.499 343.03ZM130.068 66.5745L130.158 66.7369L120.286 72.2091L120.196 72.0468L130.068 66.5745Z" fill="#9EAD8D"/>
</svg>
